# AST/ASF file generated using VICON BodyLanguage
# -----------------------------------------------
:version 1.10
:name VICON
:units
  mass 1.0
  length 0.45
  angle deg
:documentation
   .ast/.asf automatically generated from VICON data using
   VICON BodyBuilder and BodyLanguage model FoxedUp or BRILLIANT.MOD
:root
   order TX TY TZ RX RY RZ
   axis XYZ
   position 0 0 0  
   orientation 0 0 0 
:bonedata
  begin
     id 1 
     name lhipjoint
     direction 0.499407 -0.589134 0.635228 
     length 2.99786 
     axis 0 0 0  XYZ
  end
  begin
     id 2 
     name lfemur
     direction 0.34202 -0.939693 0  
     length 6.89561  
     axis 0 0 20  XYZ
    dof rx ry rz
    limits (-160.0 20.0)
           (-70.0 70.0)
           (-60.0 70.0)
  end
  begin
     id 3 
     name ltibia
     direction 0.34202 -0.939693 0   
     length 8.00494   
     axis 0 0 20   XYZ
    dof rx
    limits (-10.0 170.0)
  end
  begin
     id 4 
     name lfoot
     direction 0.0680929 -0.194353 0.978565   
     length 2.06695   
     axis -90 7.62852e-016 20   XYZ
    dof rx rz
    limits (-45.0 90.0)
           (-70.0 20.0)
  end
  begin
     id 5 
     name ltoes
     direction 1.5346e-011 -4.21731e-011 1   
     length 1.04539   
     axis -90 7.62852e-016 20   XYZ
    dof rx
    limits (-90.0 20.0)
  end
  begin
     id 6 
     name rhipjoint
     direction -0.347526 -0.63762 0.687508   
     length 2.76989  
     axis 0 0 0  XYZ 
  end
  begin
     id 7 
     name rfemur
     direction -0.34202 -0.939693 0   
     length 6.97892   
     axis 0 0 -20   XYZ
    dof rx ry rz
    limits (-160.0 20.0)
           (-70.0 70.0)
           (-70.0 60.0)
  end
  begin
     id 8 
     name rtibia
     direction -0.34202 -0.939693 0   
     length 7.77056   
     axis 0 0 -20   XYZ
    dof rx
    limits (-10.0 170.0)
 end
 begin
     id 9 
     name rfoot
     direction -0.102685 -0.282124 0.953867   
     length 2.15099  
     axis -90 -7.62852e-016 -20   XYZ
    dof rx rz
    limits (-45.0 90.0)
           (-20.0 70.0)
  end
  begin
     id 10 
     name rtoes
     direction -0.000106751 -0.00118973 0.999999   
     length 1.0765   
     axis -90 -7.62852e-016 -20   XYZ
    dof rx
    limits (-90.0 20.0)
  end
  begin
     id 11 
     name lowerback
     direction -0.0190651 0.988667 0.148909   
     length 1.90627   
     axis 0 0 0   XYZ
    dof rx ry rz
    limits (-20.0 45.0)
           (-30.0 30.0)
           (-30.0 30.0)
  end
  begin
     id 12 
     name upperback
     direction -0.0180344 0.995767 -0.0901298   
     length 1.88167   
     axis 0 0 0   XYZ
    dof rx ry rz
    limits (-20.0 45.0)
           (-30.0 30.0)
           (-30.0 30.0)
  end
  begin
     id 13 
     name thorax
     direction -0.00329861 0.986394 -0.164366   
     length 1.91528   
     axis 0 0 0   XYZ
    dof rx ry rz
    limits (-20.0 45.0)
           (-30.0 30.0)
           (-30.0 30.0)
  end
  begin
     id 14 
     name lowerneck
     direction -0.0177752 0.978637 -0.204826   
     length 2.09812   
     axis 0 0 0   XYZ
    dof rx ry rz
    limits (-20.0 45.0)
           (-30.0 30.0)
           (-30.0 30.0)
  end
  begin
     id 15 
     name upperneck
     direction 0.108032 0.994134 0.00511541   
     length 2.11937   
     axis 0 0 0   XYZ
    dof rx ry rz
    limits (-20.0 45.0)
           (-30.0 30.0)
           (-30.0 30.0)
  end
  begin
     id 16
     name head
     direction 0.0423659 0.998938 0.0181058  
     length 2.14816  
     axis 0 0 0   XYZ
    dof rx ry rz
    limits (-20.0 45.0)
           (-30.0 30.0)
           (-30.0 30.0)
  end
  begin
     id 17 
     name lclavicle
     direction 0.869509 0.396908 0.293968  
     length 4.73713  
     axis 0 0 0   XYZ
    dof ry rz
    limits (-20.0 10.0)
           (0.0 20.0)
  end
  begin
     id 18 
     name lhumerus
     direction 1 -4.49e-011 3.63829e-027   
     length 4.72096   
     axis 180 -30 -90   XYZ
    dof rx ry rz
    limits (-60.0 90.0)
           (-90.0 90.0)
           (-90.0 90.0)
  end
  begin
     id 19
     name lradius
     direction 1 -4.48932e-011 7.19196e-027   
     length 3.18148   
     axis 180 -30 -90   XYZ
    dof rx
    limits (-10.0 170.0)
  end
  begin
     id 20
     name lwrist
     direction 1 -4.48995e-011 1.85462e-026   
     length 1.59074   
     axis -1.20349e-014 90 90   XYZ
    dof ry
    limits (-180.0 0.0)
 end
  begin
     id 21 
     name lhand
     direction 1 -4.48943e-011 3.70924e-026   
     length 0.848715   
     axis -2.36681e-014 90 90   XYZ
    dof rx rz
    limits (-90.0 90.0)
           (-45.0 45.0)
  end
  begin
     id 22 
     name lfingers
     direction 1 -4.48949e-011 7.41849e-026   
     length 0.684256   
     axis -4.73363e-014 90 90   XYZ
    dof rx
    limits (0.0 90.0)
  end
  begin
     id 23
     name lthumb
     direction 0.707107 -6.35018e-011 0.707107   
     length 0.982458   
     axis -90 45 2.85299e-015   XYZ
    dof rx rz
    limits (-45.0 45.0)
           (-45.0 45.0)
  end
  begin
     id 24 
     name rclavicle
     direction -0.923214 0.372787 0.0932992   
     length 4.28107  
     axis 0 0 0   XYZ 
    dof ry rz
    limits (-10.0 20.0)
           (-20.0 0.0)
  end
  begin
     id 25 
     name rhumerus
     direction -1 -4.48968e-011 6.59881e-018  
     length 4.76918   
     axis 180 30 90   XYZ
    dof rx ry rz
    limits (-90.0 60.0)
           (-90.0 90.0)
           (-90.0 90.0)
  end
  begin
     id 26 
     name rradius
     direction -1 0.000264575 -0.000152753   
     length 3.36438   
     axis 180 30 90   XYZ
    dof rx
    limits (-10.0 170.0)
  end
  begin
     id 27 
     name rwrist
     direction -1 -4.86632e-005 -0.00030086   
     length 1.68219   
     axis -1.20349e-014 -90 -90   XYZ
    dof ry
    limits (-180.0 0.0)
  end
  begin
     id 28
     name rhand
     direction -1 -4.48915e-011 3.70924e-026   
     length 0.767694   
     axis -2.36681e-014 -90 -90   XYZ
    dof rx rz
    limits (-90.0 90.0)
           (-45.0 45.0)
  end
  begin
     id 29
     name rfingers
     direction -1 -4.49015e-011 7.41849e-026   
     length 0.618935   
     axis -4.73363e-014 -90 -90   XYZ
    dof rx
    limits (0.0 90.0)
  end
  begin
     id 30
     name rthumb
     direction -0.707107 -6.34859e-011 0.707107   
     length 0.88867   
     axis -90 -45 -2.85299e-015   XYZ
    dof rx rz
    limits (-45.0 45.0)
           (-45.0 45.0)
  end
:hierarchy
  begin
    root lhipjoint rhipjoint lowerback
    lhipjoint lfemur
    lfemur ltibia
    ltibia lfoot
    lfoot ltoes
    rhipjoint rfemur
    rfemur rtibia
    rtibia rfoot
    rfoot rtoes
    lowerback upperback
    upperback thorax
    thorax lowerneck lclavicle rclavicle
    lowerneck upperneck
    upperneck head
    lclavicle lhumerus
    lhumerus lradius
    lradius lwrist
    lwrist lhand lthumb
    lhand lfingers
    rclavicle rhumerus
    rhumerus rradius
    rradius rwrist
    rwrist rhand rthumb
    rhand rfingers
  end

#!OML:ASF C:\Documents and Settings\Administrator\Desktop\New Folder (2)\VR_Jason.ASF
:FULLY-SPECIFIED
:DEGREES
36
root -0.786764 17.5066 0.0759062 11.0448 -8.00586 3.46224
lowerback -21.9949 1.6603 -1.95003
upperback 5.28852 3.21119 -2.18453
thorax 18.824 1.35629 -0.276236
lowerneck 18.4295 -3.46605 -7.24185
upperneck 0.56414 -5.54591 11.8384
head -2.24699 -3.29033 5.21076
rclavicle 5.96354e-015 -4.37326e-015
rhumerus -20.4493 -63.0901 -63.8902
rradius 34.2362
rwrist 6.38418
rhand -21.4013 23.0761
rfingers 7.12502
rthumb 4.98691 -6.84524
lclavicle 5.96354e-015 -4.37326e-015
lhumerus -10.1743 50.5251 67.1394
lradius 42.7437
lwrist 2.55351
lhand -22.4247 31.4449
lfingers 7.12502
lthumb 3.99861 61.3871
rfemur -21.3397 -8.80729 9.72203
rtibia 29.7511
rfoot -16.2094 -12.8767
rtoes -19.4548
lfemur -12.4342 -10.5766 -16.5191
ltibia 19.3675
lfoot -27.8761 24.0269
ltoes 2.29546
37
root -0.786102 17.5028 0.0781138 11.0437 -8.04486 3.53392
lowerback -22.0026 1.6705 -2.00126
upperback 5.26418 3.24624 -2.22405
thorax 18.7979 1.36939 -0.280664
lowerneck 18.4706 -3.49709 -7.14338
upperneck 0.592001 -5.57403 11.7345
head -2.24634 -3.3004 5.16423
rclavicle -4.91992e-015 -1.59028e-015
rhumerus -20.6184 -62.8777 -63.8424
rradius 34.2989
rwrist 6.13153
rhand -21.5844 22.9844
rfingers 7.12502
rthumb 4.81003 -6.941
lclavicle -4.91992e-015 -1.59028e-015
lhumerus -10.3537 50.348 67.0102
lradius 42.7742
lwrist 2.52419
lhand -22.4306 31.963
lfingers 7.12502
lthumb 3.993 61.9054
rfemur -21.3615 -8.96839 9.63638
rtibia 29.7745
rfoot -16.2428 -12.7031
rtoes -19.436
lfemur -12.3873 -10.5038 -16.6422
ltibia 19.3447
lfoot -27.8308 23.9741
ltoes 2.57563
38
root -0.786003 17.5004 0.0772636 11.0273 -8.02501 3.51848
lowerback -22.0151 1.66767 -1.98618
upperback 5.31528 3.23957 -2.21613
thorax 18.8719 1.36649 -0.282047
lowerneck 18.2667 -3.53857 -7.11529
upperneck 0.737273 -5.62845 11.6525
head -2.16879 -3.31625 5.12674
rclavicle -1.11319e-014 1.53064e-014
rhumerus -20.3973 -62.8723 -64.0739
rradius 34.2825
rwrist 5.96777
rhand -21.8326 22.9151
rfingers 7.12502
rthumb 4.57037 -7.0156
lclavicle -1.11319e-014 1.53064e-014
lhumerus -10.3327 50.2978 67.0913
lradius 42.8044
lwrist 2.50974
lhand -22.3585 32.1265
lfingers 7.12502
lthumb 4.0626 62.0675
rfemur -21.3456 -9.1557 9.65796
rtibia 29.7997
rfoot -16.2829 -12.5107
rtoes -19.3657
lfemur -12.3237 -10.3699 -16.6514
ltibia 19.3142
lfoot -27.9205 23.6989
ltoes 3.27485
39
root -0.787247 17.5019 0.0796145 11.0109 -7.99794 3.50299
lowerback -22.0232 1.65028 -2.02184
upperback 5.34996 3.22116 -2.175
thorax 18.9165 1.34998 -0.219592
lowerneck 18.1032 -3.54181 -7.1483
upperneck 0.844446 -5.64181 11.6215
head -2.11032 -3.31566 5.11531
rclavicle -1.2275e-014 3.04141e-014
rhumerus -20.2111 -62.9821 -64.1848
rradius 34.2081
rwrist 6.02565
rhand -21.9379 22.8595
rfingers 7.12502
rthumb 4.46871 -7.07334
lclavicle -1.2275e-014 3.04141e-014
lhumerus -10.3666 50.2689 67.1473
lradius 42.7766
lwrist 2.56289
lhand -22.3216 31.9248
lfingers 7.12502
lthumb 4.0982 61.8651
rfemur -21.3093 -9.14119 9.67655
rtibia 29.8227
rfoot -16.333 -12.5308
rtoes -19.2964
lfemur -12.2909 -10.3827 -16.6242
ltibia 19.2795
lfoot -28.1354 23.5699
ltoes 3.53649
40
root -0.788573 17.5028 0.0810356 11.0013 -7.95971 3.51641
lowerback -22.0411 1.62983 -2.06904
upperback 5.37187 3.20632 -2.15906
thorax 18.9523 1.33605 -0.1789
lowerneck 18.094 -3.53794 -7.10668
upperneck 0.84072 -5.62961 11.5557
head -2.11349 -3.30645 5.08691
rclavicle 2.68856e-014 -5.96354e-016
rhumerus -20.1323 -63.3917 -64.1769
rradius 34.0777
rwrist 6.49049
rhand -22.0281 22.8441
rfingers 7.12502
rthumb 4.3816 -7.09056
lclavicle 2.68856e-014 -5.96354e-016
lhumerus -10.3266 50.3884 67.2304
lradius 42.6402
lwrist 2.44249
lhand -22.4096 31.9494
lfingers 7.12502
lthumb 4.01328 61.8913
rfemur -21.2809 -8.95914 9.64989
rtibia 29.8372
rfoot -16.3837 -12.7265
rtoes -19.2042
lfemur -12.2881 -10.4759 -16.6139
ltibia 19.2562
lfoot -28.2536 23.5471
ltoes 3.57868
41
root -0.787207 17.5013 0.0813487 10.9961 -7.98498 3.50628
lowerback -22.0983 1.64065 -2.03633
upperback 5.41361 3.21617 -2.16212
thorax 19.0448 1.34284 -0.195956
lowerneck 18.0798 -3.52883 -7.11831
upperneck 0.833312 -5.61809 11.5725
head -2.11412 -3.30116 5.0932
rclavicle 3.14577e-014 -2.18663e-015
rhumerus -19.9883 -63.7902 -64.2418
rradius 33.9529
rwrist 6.9787
rhand -21.7903 22.769
rfingers 7.12502
rthumb 4.61125 -7.16083
lclavicle 3.14577e-014 -2.18663e-015
lhumerus -10.2671 50.6079 67.3177
lradius 42.5661
lwrist 2.37888
lhand -22.6103 32.23
lfingers 7.12502
lthumb 3.81946 62.1755
rfemur -21.2996 -9.06134 9.66468
rtibia 29.8464
rfoot -16.365 -12.6402
rtoes -19.3338
lfemur -12.2527 -10.4375 -16.6279
ltibia 19.2425
lfoot -28.1508 23.5947
ltoes 3.18065
42
root -0.786656 17.4997 0.0850287 10.9895 -8.02949 3.49856
lowerback -22.016 1.6658 -1.96343
upperback 5.67932 3.25062 -2.26831
thorax 18.6911 1.35018 -0.226522
lowerneck 18.1113 -3.51311 -7.06735
upperneck 0.829813 -5.58705 11.5932
head -2.12414 -3.2877 5.09103
rclavicle -5.01931e-015 -2.38542e-015
rhumerus -20.0436 -63.881 -64.2467
rradius 33.8777
rwrist 7.1652
rhand -21.5261 22.8939
rfingers 7.12502
rthumb 4.86635 -7.0302
lclavicle -5.01931e-015 -2.38542e-015
lhumerus -10.2795 50.7762 67.2519
lradius 42.4553
lwrist 2.31022
lhand -22.7201 32.2222
lfingers 7.12502
lthumb 3.71341 62.1696
rfemur -21.3028 -9.09292 9.67492
rtibia 29.8544
rfoot -16.3495 -12.614
rtoes -19.5404
lfemur -12.1949 -10.3777 -16.6483
ltibia 19.2305
lfoot -27.9869 23.6687
ltoes 2.3251
43
root -0.787374 17.5001 0.0851605 11.0123 -8.03455 3.48432
lowerback -22.0375 1.65708 -1.98268
upperback 5.34652 3.2263 -2.21451
thorax 18.9265 1.3602 -0.286547
lowerneck 18.096 -3.49829 -6.94543
upperneck 0.885789 -5.54989 11.4819
head -2.11394 -3.26343 5.03269
rclavicle -1.8487e-014 1.0138e-014
rhumerus -20.2938 -63.5808 -64.1676
rradius 33.931
rwrist 6.86312
rhand -21.6147 22.9788
rfingers 7.12502
rthumb 4.78081 -6.94726
lclavicle -1.8487e-014 1.0138e-014
lhumerus -10.5403 50.6736 66.9935
lradius 42.3823
lwrist 2.32558
lhand -22.6323 32.0599
lfingers 7.12502
lthumb 3.79818 62.0058
rfemur -21.3251 -8.8858 9.6862
rtibia 29.8598
rfoot -16.3261 -12.8327
rtoes -19.5837
lfemur -12.2139 -10.4016 -16.6226
ltibia 19.2236
lfoot -28.046 23.6239
ltoes 2.49718
44
root -0.78768 17.5025 0.0822702 11.0482 -7.99281 3.44213
lowerback -21.9781 1.6442 -1.98014
upperback 5.31117 3.19816 -2.18151
thorax 18.8406 1.34675 -0.260849
lowerneck 18.0209 -3.48849 -6.81871
upperneck 0.880296 -5.51331 11.3152
head -2.114 -3.23602 4.95532
rclavicle 1.46107e-014 -2.5842e-015
rhumerus -20.4278 -63.2384 -64.1047
rradius 34.0086
rwrist 6.41822
rhand -21.7178 22.8601
rfingers 7.12502
rthumb 4.68127 -7.06819
lclavicle 1.46107e-014 -2.5842e-015
lhumerus -10.7693 50.51 66.8961
lradius 42.4249
lwrist 2.42973
lhand -22.5322 31.8925
lfingers 7.12502
lthumb 3.89489 61.8366
rfemur -21.3408 -8.7461 9.72878
rtibia 29.8479
rfoot -16.3096 -12.978
rtoes -19.4867
lfemur -12.2844 -10.3751 -16.5547
ltibia 19.2343
lfoot -28.0218 23.6015
ltoes 2.6066
45
root -0.788161 17.5036 0.0832654 11.0577 -7.97026 3.46348
lowerback -22.0606 1.62311 -2.05105
upperback 5.34339 3.19012 -2.15262
thorax 18.9284 1.33085 -0.187065
lowerneck 18.0277 -3.4569 -6.82868
upperneck 0.779663 -5.46624 11.3178
head -2.14941 -3.21414 4.95744
rclavicle 6.60959e-015 -3.53837e-014
rhumerus -20.4024 -63.11 -64.1091
rradius 34.0556
rwrist 6.30553
rhand -21.658 22.7167
rfingers 7.12502
rthumb 4.73902 -7.2103
lclavicle 6.60959e-015 -3.53837e-014
lhumerus -10.8095 50.6124 66.9834
lradius 42.4803
lwrist 2.36747
lhand -22.2917 31.5225
lfingers 7.12502
lthumb 4.12711 61.4623
rfemur -21.3237 -8.75525 9.70186
rtibia 29.8177
rfoot -16.3127 -12.9795
rtoes -19.4356
lfemur -12.3205 -10.4311 -16.5706
ltibia 19.2712
lfoot -27.8513 23.7918
ltoes 2.00795
46
root -0.788969 17.5035 0.0820014 11.0481 -7.94844 3.46912
lowerback -22.0934 1.60942 -2.07707
upperback 5.36585 3.1816 -2.15213
thorax 18.9768 1.32328 -0.174057
lowerneck 18.1296 -3.42985 -6.8807
upperneck 0.652793 -5.43191 11.4247
head -2.20303 -3.20614 5.00357
rclavicle 8.05078e-015 4.57205e-015
rhumerus -20.3899 -62.9489 -64.158
rradius 34.051
rwrist 6.22069
rhand -21.7355 22.6193
rfingers 7.12502
rthumb 4.66421 -7.3094
lclavicle 8.05078e-015 4.57205e-015
lhumerus -10.987 50.6302 66.8975
lradius 42.575
lwrist 2.38966
lhand -21.9758 31.1605
lfingers 7.12502
lthumb 4.4321 61.0942
rfemur -21.2909 -8.80149 9.69868
rtibia 29.7812
rfoot -16.3209 -12.9306
rtoes -19.3052
lfemur -12.3507 -10.4829 -16.5622
ltibia 19.3172
lfoot -27.9131 23.7932
ltoes 2.13847
47
root -0.78998 17.5036 0.0794003 11.0552 -7.91395 3.42726
lowerback -22.0071 1.61196 -2.04205
upperback 5.32758 3.16723 -2.14002
thorax 18.8735 1.32188 -0.187202
lowerneck 18.1694 -3.42037 -6.96736
upperneck 0.660732 -5.43636 11.5117
head -2.20251 -3.21317 5.04652
rclavicle -1.70955e-014 3.97569e-015
rhumerus -20.5284 -62.6832 -64.0774
rradius 34.0527
rwrist 5.88264
rhand -21.9015 22.4601
rfingers 7.12502
rthumb 4.50392 -7.47203
lclavicle -1.70955e-014 3.97569e-015
lhumerus -11.2306 50.6125 66.7346
lradius 42.6148
lwrist 2.37509
lhand -21.6282 30.9357
lfingers 7.12502
lthumb 4.76783 60.862
rfemur -21.2819 -8.74594 9.75809
rtibia 29.7566
rfoot -16.2709 -13.0546
rtoes -19.4627
lfemur -12.3934 -10.4395 -16.495
ltibia 19.3451
lfoot -27.9458 23.7498
ltoes 2.00749
48
root -0.7904 17.5042 0.0808363 11.0684 -7.93273 3.3751
lowerback -21.9417 1.63289 -1.99052
upperback 5.2976 3.17481 -2.13106
thorax 18.7955 1.33164 -0.204729
lowerneck 18.141 -3.42581 -6.98229
upperneck 0.70202 -5.44845 11.5167
head -2.18417 -3.21812 5.0494
rclavicle 2.41523e-014 -2.88238e-014
rhumerus -20.6289 -62.5414 -64.01
rradius 34.0496
rwrist 5.74243
rhand -21.8344 22.3695
rfingers 7.12502
rthumb 4.56865 -7.56124
lclavicle 2.41523e-014 -2.88238e-014
lhumerus -11.3156 50.7012 66.6694
lradius 42.5733
lwrist 2.2198
lhand -21.3614 30.8989
lfingers 7.12502
lthumb 5.0254 60.8193
rfemur -21.2797 -8.55141 9.81169
rtibia 29.7405
rfoot -16.229 -13.2542
rtoes -19.6524
lfemur -12.4071 -10.4423 -16.4318
ltibia 19.3668
lfoot -27.8168 23.9425
ltoes 1.31265
49
root -0.790666 17.5051 0.0820298 11.0938 -7.96943 3.37506
lowerback -21.9812 1.63781 -2.02294
upperback 5.29231 3.1893 -2.11452
thorax 18.8106 1.33226 -0.16019
lowerneck 18.2111 -3.42449 -7.03832
upperneck 0.638669 -5.45586 11.5364
head -2.2111 -3.22523 5.06865
rclavicle -3.42904e-015 7.35503e-015
rhumerus -20.7453 -62.4369 -63.9012
rradius 34.0626
rwrist 5.71471
rhand -21.5657 22.4636
rfingers 7.12502
rthumb 4.82811 -7.46137
lclavicle -3.42904e-015 7.35503e-015
lhumerus -11.3882 50.7607 66.6552
lradius 42.5606
lwrist 2.15724
lhand -21.302 30.8513
lfingers 7.12502
lthumb 5.08271 60.7704
rfemur -21.3115 -8.44614 9.80281
rtibia 29.7405
rfoot -16.2776 -13.3073
rtoes -19.4358
lfemur -12.4277 -10.4882 -16.432
ltibia 19.3693
lfoot -27.8666 23.9411
ltoes 1.70849
